<?xml version="1.0" encoding="utf-8"?>
<!-- Generator: Adobe Illustrator 17.1.0, SVG Export Plug-In . SVG Version: 6.00 Build 0)  -->
<!DOCTYPE svg PUBLIC "-//W3C//DTD SVG 1.1//EN" "http://www.w3.org/Graphics/SVG/1.1/DTD/svg11.dtd">
<svg version="1.1" id="Layer_1" xmlns="http://www.w3.org/2000/svg" xmlns:xlink="http://www.w3.org/1999/xlink" x="0px" y="0px"
	 viewBox="0 0 349.9 122.3" enable-background="new 0 0 349.9 122.3" xml:space="preserve">
<g>
	<g>
		<g>
			<path fill="#9C9C9C" d="M137.2,91.6L108.3,2.1h20.2L148.4,65h0.3l20.2-62.9h20.3l-29.7,89.4H137.2z"/>
			<path fill="#9C9C9C" d="M237.1,2.1c5.6,0,10.4,0.8,14.3,2.4c3.9,1.6,7.1,3.8,9.6,6.5c2.5,2.7,4.3,5.7,5.4,9.1
				c1.1,3.4,1.7,7,1.7,10.6c0,3.6-0.6,7.1-1.7,10.6c-1.1,3.5-2.9,6.5-5.4,9.2c-2.5,2.7-5.7,4.8-9.6,6.5c-3.9,1.6-8.7,2.4-14.3,2.4
				h-20.7v32.1h-19.7V2.1H237.1z M231.7,44.2c2.3,0,4.4-0.2,6.5-0.5c2.1-0.3,3.9-1,5.5-1.9c1.6-1,2.9-2.3,3.8-4.1
				c1-1.8,1.4-4,1.4-6.9c0-2.8-0.5-5.1-1.4-6.9c-1-1.8-2.2-3.1-3.8-4.1c-1.6-1-3.4-1.6-5.5-1.9c-2.1-0.3-4.3-0.5-6.5-0.5h-15.3v26.8
				H231.7z"/>
			<path fill="#9C9C9C" d="M295.3,69.5c1.1,2.1,2.5,3.8,4.3,5.1c1.8,1.3,3.9,2.3,6.3,2.9c2.4,0.6,4.9,0.9,7.5,0.9
				c1.8,0,3.6-0.1,5.6-0.4c2-0.3,3.9-0.9,5.6-1.7c1.8-0.8,3.2-2,4.4-3.4c1.2-1.5,1.8-3.3,1.8-5.6c0-2.4-0.8-4.4-2.3-5.9
				c-1.5-1.5-3.6-2.8-6.1-3.8s-5.3-1.9-8.5-2.6c-3.2-0.8-6.4-1.6-9.6-2.5c-3.3-0.8-6.6-1.9-9.8-3.1c-3.2-1.2-6-2.8-8.5-4.7
				c-2.5-1.9-4.5-4.3-6.1-7.2c-1.5-2.9-2.3-6.4-2.3-10.5c0-4.6,1-8.6,2.9-12c2-3.4,4.5-6.2,7.7-8.5c3.2-2.3,6.8-3.9,10.8-5
				c4-1.1,8-1.6,12-1.6c4.7,0,9.2,0.5,13.5,1.6c4.3,1,8.1,2.7,11.5,5.1c3.3,2.3,6,5.3,8,9c2,3.6,2.9,8,2.9,13.2h-19
				c-0.2-2.7-0.7-4.9-1.7-6.6c-1-1.8-2.2-3.1-3.8-4.1c-1.6-1-3.4-1.7-5.4-2.1c-2-0.4-4.3-0.6-6.7-0.6c-1.6,0-3.2,0.2-4.8,0.5
				c-1.6,0.3-3,0.9-4.3,1.8c-1.3,0.8-2.4,1.9-3.2,3.1c-0.8,1.3-1.3,2.8-1.3,4.8c0,1.8,0.3,3.2,1,4.3c0.7,1.1,2,2.1,3.9,3
				c2,0.9,4.7,1.8,8.1,2.8c3.5,0.9,8,2.1,13.6,3.5c1.7,0.3,4,0.9,7,1.8c3,0.9,5.9,2.3,8.8,4.2c2.9,1.9,5.4,4.5,7.6,7.7
				c2.1,3.2,3.2,7.3,3.2,12.3c0,4.1-0.8,7.9-2.4,11.4c-1.6,3.5-3.9,6.5-7.1,9.1c-3.1,2.5-7,4.5-11.6,5.9c-4.6,1.4-10,2.1-16.1,2.1
				c-4.9,0-9.7-0.6-14.3-1.8c-4.6-1.2-8.7-3.1-12.3-5.7c-3.5-2.6-6.4-5.9-8.5-9.9c-2.1-4-3.1-8.8-3-14.3h19
				C293.7,64.9,294.2,67.4,295.3,69.5z"/>
			<path fill="#9C9C9C" d="M115.7,103.2h3.1l4.3,13.6h0l4.4-13.6h3l-5.9,17.1h-3.3L115.7,103.2z"/>
			<path fill="#9C9C9C" d="M132.2,103.2h2.7v2.6h-2.7V103.2z M132.2,107.9h2.7v12.4h-2.7V107.9z"/>
			<path fill="#9C9C9C" d="M137.9,107.9h2.6v2.4h0c0.1-0.3,0.2-0.7,0.5-1c0.2-0.3,0.5-0.6,0.8-0.9c0.3-0.3,0.7-0.5,1.1-0.6
				c0.4-0.2,0.8-0.2,1.2-0.2c0.3,0,0.5,0,0.7,0c0.1,0,0.2,0,0.4,0v2.6c-0.2,0-0.4-0.1-0.6-0.1c-0.2,0-0.4,0-0.6,0
				c-0.5,0-0.9,0.1-1.3,0.3c-0.4,0.2-0.8,0.5-1.1,0.8c-0.3,0.4-0.5,0.8-0.7,1.3c-0.2,0.5-0.3,1.1-0.3,1.8v5.9h-2.7V107.9z"/>
			<path fill="#9C9C9C" d="M145.1,107.9h2.1v-3.7h2.7v3.7h2.5v2h-2.5v6.6c0,0.3,0,0.5,0,0.7s0.1,0.4,0.2,0.5
				c0.1,0.1,0.2,0.3,0.4,0.3c0.2,0.1,0.4,0.1,0.7,0.1c0.2,0,0.4,0,0.6,0c0.2,0,0.4,0,0.6-0.1v2.1c-0.3,0-0.6,0.1-0.9,0.1
				c-0.3,0-0.6,0-0.9,0c-0.7,0-1.3-0.1-1.7-0.2c-0.4-0.1-0.8-0.3-1-0.6c-0.2-0.3-0.4-0.6-0.5-1c-0.1-0.4-0.1-0.9-0.2-1.4V110h-2.1
				V107.9z"/>
			<path fill="#9C9C9C" d="M165.2,120.4h-2.7v-1.7h0c-0.3,0.6-0.8,1.1-1.5,1.5c-0.7,0.4-1.3,0.6-2,0.6c-1.6,0-2.8-0.4-3.5-1.2
				c-0.7-0.8-1.1-2-1.1-3.7v-7.9h2.7v7.6c0,1.1,0.2,1.9,0.6,2.3c0.4,0.4,1,0.7,1.8,0.7c0.6,0,1.1-0.1,1.4-0.3
				c0.4-0.2,0.7-0.4,0.9-0.7c0.2-0.3,0.4-0.7,0.5-1.1c0.1-0.4,0.2-0.9,0.2-1.3v-7.2h2.7V120.4z"/>
			<path fill="#9C9C9C" d="M178.5,117.6c0,0.3,0,0.6,0.1,0.7s0.3,0.2,0.5,0.2c0.1,0,0.2,0,0.3,0c0.1,0,0.2,0,0.4,0v1.9
				c-0.1,0-0.2,0.1-0.4,0.1s-0.3,0.1-0.5,0.1c-0.2,0-0.3,0.1-0.5,0.1c-0.2,0-0.3,0-0.4,0c-0.6,0-1-0.1-1.4-0.3
				c-0.4-0.2-0.6-0.6-0.7-1.2c-0.5,0.5-1.2,0.9-2,1.2c-0.8,0.2-1.6,0.4-2.3,0.4c-0.6,0-1.1-0.1-1.6-0.2c-0.5-0.2-1-0.4-1.4-0.7
				c-0.4-0.3-0.7-0.7-0.9-1.1c-0.2-0.5-0.3-1-0.3-1.6c0-0.8,0.1-1.4,0.4-1.9c0.3-0.5,0.6-0.9,1.1-1.1c0.5-0.3,1-0.5,1.5-0.6
				c0.6-0.1,1.1-0.2,1.7-0.3c0.5-0.1,1-0.2,1.4-0.2c0.4,0,0.8-0.1,1.2-0.2c0.3-0.1,0.6-0.2,0.8-0.4s0.3-0.5,0.3-0.9
				c0-0.4-0.1-0.6-0.3-0.9c-0.2-0.2-0.4-0.4-0.6-0.5c-0.2-0.1-0.5-0.2-0.8-0.2c-0.3,0-0.6-0.1-0.9-0.1c-0.8,0-1.4,0.2-1.9,0.5
				c-0.5,0.3-0.8,0.8-0.8,1.5h-2.7c0-0.8,0.2-1.5,0.6-2c0.3-0.5,0.8-1,1.3-1.3c0.5-0.3,1.1-0.5,1.8-0.7c0.7-0.1,1.3-0.2,2-0.2
				c0.6,0,1.2,0.1,1.8,0.2c0.6,0.1,1.1,0.3,1.6,0.6c0.5,0.3,0.9,0.7,1.1,1.1c0.3,0.5,0.4,1,0.4,1.7V117.6z M175.8,114.1
				c-0.4,0.3-0.9,0.4-1.5,0.5c-0.6,0.1-1.2,0.1-1.8,0.3c-0.3,0-0.6,0.1-0.8,0.2c-0.3,0.1-0.5,0.2-0.7,0.4c-0.2,0.2-0.4,0.4-0.5,0.6
				s-0.2,0.5-0.2,0.9c0,0.3,0.1,0.6,0.3,0.8c0.2,0.2,0.4,0.4,0.6,0.5c0.2,0.1,0.5,0.2,0.8,0.3c0.3,0,0.6,0.1,0.8,0.1
				c0.3,0,0.6,0,1-0.1c0.4-0.1,0.7-0.2,1-0.4c0.3-0.2,0.6-0.4,0.8-0.7c0.2-0.3,0.3-0.7,0.3-1.1V114.1z"/>
			<path fill="#9C9C9C" d="M181.5,103.2h2.7v17.1h-2.7V103.2z"/>
			<path fill="#9C9C9C" d="M194.3,103.2h7.6c1.2,0,2.2,0.2,3,0.5c0.8,0.4,1.4,0.8,1.8,1.3s0.7,1.1,0.9,1.7c0.2,0.6,0.2,1.2,0.2,1.7
				s-0.1,1.1-0.2,1.7c-0.2,0.6-0.4,1.2-0.9,1.7c-0.4,0.5-1,1-1.8,1.3c-0.8,0.3-1.8,0.5-3,0.5h-4.6v6.6h-3V103.2z M197.3,111.3h4.4
				c0.3,0,0.7,0,1-0.1c0.4-0.1,0.7-0.3,1-0.5s0.5-0.5,0.7-0.9s0.3-0.8,0.3-1.4c0-0.6-0.1-1-0.2-1.4s-0.4-0.7-0.6-0.9
				c-0.3-0.2-0.6-0.4-0.9-0.4c-0.4-0.1-0.7-0.1-1.1-0.1h-4.4V111.3z"/>
			<path fill="#9C9C9C" d="M215.6,120.7c-1,0-1.9-0.2-2.7-0.5c-0.8-0.3-1.4-0.8-2-1.4s-0.9-1.3-1.2-2.1c-0.3-0.8-0.4-1.7-0.4-2.6
				c0-0.9,0.1-1.8,0.4-2.6c0.3-0.8,0.7-1.5,1.2-2.1c0.5-0.6,1.2-1,2-1.4s1.7-0.5,2.7-0.5s1.9,0.2,2.7,0.5c0.8,0.3,1.4,0.8,2,1.4
				c0.5,0.6,0.9,1.3,1.2,2.1s0.4,1.7,0.4,2.6c0,1-0.1,1.8-0.4,2.6c-0.3,0.8-0.7,1.5-1.2,2.1c-0.5,0.6-1.2,1-2,1.4
				C217.5,120.5,216.6,120.7,215.6,120.7z M215.6,118.5c0.6,0,1.1-0.1,1.6-0.4c0.4-0.3,0.8-0.6,1.1-1s0.5-0.9,0.6-1.4
				c0.1-0.5,0.2-1.1,0.2-1.6c0-0.5-0.1-1.1-0.2-1.6c-0.1-0.5-0.3-1-0.6-1.4s-0.7-0.7-1.1-1c-0.4-0.3-1-0.4-1.6-0.4
				c-0.6,0-1.1,0.1-1.6,0.4c-0.4,0.3-0.8,0.6-1.1,1s-0.5,0.9-0.6,1.4c-0.1,0.5-0.2,1.1-0.2,1.6c0,0.5,0.1,1.1,0.2,1.6
				c0.1,0.5,0.3,1,0.6,1.4s0.7,0.8,1.1,1C214.5,118.4,215,118.5,215.6,118.5z"/>
			<path fill="#9C9C9C" d="M224.2,103.2h2.7v17.1h-2.7V103.2z"/>
			<path fill="#9C9C9C" d="M230,103.2h2.7v2.6H230V103.2z M230,107.9h2.7v12.4H230V107.9z"/>
			<path fill="#9C9C9C" d="M244.1,112.1c-0.1-0.8-0.4-1.3-0.9-1.7c-0.5-0.4-1.1-0.6-1.9-0.6c-0.4,0-0.7,0.1-1.1,0.2
				c-0.4,0.1-0.8,0.3-1.1,0.7c-0.3,0.3-0.6,0.8-0.8,1.4c-0.2,0.6-0.3,1.3-0.3,2.3c0,0.5,0.1,1,0.2,1.5c0.1,0.5,0.3,1,0.6,1.4
				c0.3,0.4,0.6,0.7,1,1c0.4,0.2,0.9,0.4,1.5,0.4c0.8,0,1.5-0.2,2-0.7c0.5-0.5,0.8-1.2,1-2.1h2.7c-0.3,1.6-0.9,2.9-1.8,3.7
				c-1,0.9-2.3,1.3-3.9,1.3c-1,0-1.8-0.2-2.6-0.5c-0.7-0.3-1.4-0.8-1.9-1.3c-0.5-0.6-0.9-1.2-1.2-2c-0.3-0.8-0.4-1.6-0.4-2.5
				c0-0.9,0.1-1.8,0.4-2.6c0.3-0.8,0.6-1.5,1.2-2.1c0.5-0.6,1.1-1.1,1.9-1.4c0.8-0.3,1.7-0.5,2.7-0.5c0.7,0,1.4,0.1,2.1,0.3
				c0.6,0.2,1.2,0.5,1.7,0.8s0.9,0.8,1.2,1.4c0.3,0.6,0.5,1.2,0.6,2H244.1z"/>
			<path fill="#9C9C9C" d="M251.2,114.9c0,0.5,0.1,0.9,0.2,1.4c0.1,0.4,0.3,0.8,0.6,1.2s0.6,0.6,1,0.8s0.9,0.3,1.5,0.3
				c0.8,0,1.4-0.2,1.9-0.5s0.9-0.9,1.1-1.5h2.6c-0.1,0.7-0.4,1.3-0.7,1.8c-0.4,0.5-0.8,1-1.3,1.3c-0.5,0.4-1.1,0.6-1.7,0.8
				c-0.6,0.2-1.3,0.3-1.9,0.3c-1,0-1.8-0.2-2.6-0.5c-0.8-0.3-1.4-0.8-1.9-1.3c-0.5-0.6-0.9-1.3-1.2-2.1c-0.3-0.8-0.4-1.7-0.4-2.6
				c0-0.9,0.1-1.7,0.4-2.5c0.3-0.8,0.7-1.5,1.2-2.1c0.5-0.6,1.1-1.1,1.9-1.4c0.7-0.4,1.6-0.5,2.5-0.5c1,0,1.9,0.2,2.6,0.6
				c0.8,0.4,1.4,0.9,1.9,1.6c0.5,0.7,0.9,1.4,1.1,2.3c0.2,0.9,0.3,1.8,0.2,2.7H251.2z M257.6,113.1c0-0.4-0.1-0.8-0.3-1.2
				c-0.2-0.4-0.4-0.7-0.6-1c-0.3-0.3-0.6-0.5-1-0.7c-0.4-0.2-0.8-0.3-1.3-0.3c-0.5,0-0.9,0.1-1.3,0.3c-0.4,0.2-0.7,0.4-1,0.7
				s-0.5,0.6-0.7,1s-0.3,0.8-0.3,1.3H257.6z"/>
			<path fill="#9C9C9C" d="M271.4,114.6c0,0.7,0.1,1.2,0.3,1.7c0.2,0.5,0.5,0.8,0.9,1.1c0.4,0.3,0.9,0.5,1.4,0.6
				c0.5,0.1,1.1,0.2,1.7,0.2c0.7,0,1.2-0.1,1.7-0.2c0.5-0.2,0.8-0.3,1.1-0.6c0.3-0.2,0.5-0.5,0.6-0.8c0.1-0.3,0.2-0.6,0.2-0.9
				c0-0.7-0.1-1.1-0.4-1.5c-0.3-0.3-0.6-0.5-1-0.7c-0.6-0.2-1.3-0.4-2.1-0.6s-1.8-0.5-3-0.8c-0.7-0.2-1.3-0.4-1.8-0.8
				c-0.5-0.3-0.9-0.7-1.2-1s-0.5-0.8-0.6-1.2c-0.1-0.4-0.2-0.9-0.2-1.3c0-0.9,0.2-1.6,0.5-2.2c0.4-0.6,0.8-1.2,1.4-1.6
				c0.6-0.4,1.3-0.7,2-0.9s1.5-0.3,2.3-0.3c0.9,0,1.7,0.1,2.5,0.3c0.8,0.2,1.5,0.6,2.1,1c0.6,0.5,1.1,1,1.4,1.7
				c0.4,0.7,0.5,1.5,0.5,2.4h-3c-0.1-1.1-0.5-1.9-1.1-2.3c-0.7-0.5-1.5-0.7-2.6-0.7c-0.4,0-0.7,0-1.1,0.1c-0.4,0.1-0.7,0.2-1,0.4
				c-0.3,0.2-0.6,0.4-0.8,0.7c-0.2,0.3-0.3,0.6-0.3,1.1c0,0.6,0.2,1.1,0.6,1.4c0.4,0.3,0.9,0.6,1.5,0.8c0.1,0,0.3,0.1,0.8,0.2
				c0.4,0.1,0.9,0.3,1.5,0.4c0.5,0.1,1.1,0.3,1.6,0.4s0.9,0.2,1.1,0.3c0.6,0.2,1,0.4,1.5,0.7c0.4,0.3,0.8,0.7,1,1
				c0.3,0.4,0.5,0.8,0.6,1.3c0.1,0.4,0.2,0.9,0.2,1.3c0,1-0.2,1.8-0.6,2.5c-0.4,0.7-0.9,1.2-1.5,1.7c-0.6,0.4-1.4,0.7-2.2,0.9
				c-0.8,0.2-1.6,0.3-2.5,0.3c-1,0-1.9-0.1-2.8-0.4s-1.6-0.6-2.3-1.1s-1.2-1.1-1.5-1.9s-0.6-1.7-0.6-2.7H271.4z"/>
			<path fill="#9C9C9C" d="M283.4,107.9h2.1v-3.7h2.7v3.7h2.5v2h-2.5v6.6c0,0.3,0,0.5,0,0.7c0,0.2,0.1,0.4,0.2,0.5
				c0.1,0.1,0.2,0.3,0.4,0.3c0.2,0.1,0.4,0.1,0.7,0.1c0.2,0,0.4,0,0.6,0s0.4,0,0.6-0.1v2.1c-0.3,0-0.6,0.1-0.9,0.1
				c-0.3,0-0.6,0-0.9,0c-0.7,0-1.3-0.1-1.7-0.2c-0.4-0.1-0.8-0.3-1-0.6c-0.2-0.3-0.4-0.6-0.5-1c-0.1-0.4-0.1-0.9-0.2-1.4V110h-2.1
				V107.9z"/>
			<path fill="#9C9C9C" d="M303,117.6c0,0.3,0,0.6,0.1,0.7s0.3,0.2,0.5,0.2c0.1,0,0.2,0,0.3,0s0.2,0,0.4,0v1.9
				c-0.1,0-0.2,0.1-0.4,0.1c-0.2,0-0.3,0.1-0.5,0.1c-0.2,0-0.3,0.1-0.5,0.1c-0.2,0-0.3,0-0.4,0c-0.6,0-1-0.1-1.4-0.3
				c-0.4-0.2-0.6-0.6-0.7-1.2c-0.5,0.5-1.2,0.9-2,1.2c-0.8,0.2-1.6,0.4-2.3,0.4c-0.6,0-1.1-0.1-1.6-0.2c-0.5-0.2-1-0.4-1.4-0.7
				c-0.4-0.3-0.7-0.7-0.9-1.1c-0.2-0.5-0.3-1-0.3-1.6c0-0.8,0.1-1.4,0.4-1.9c0.3-0.5,0.6-0.9,1.1-1.1c0.5-0.3,1-0.5,1.5-0.6
				c0.6-0.1,1.1-0.2,1.7-0.3c0.5-0.1,1-0.2,1.4-0.2c0.4,0,0.8-0.1,1.2-0.2c0.3-0.1,0.6-0.2,0.8-0.4s0.3-0.5,0.3-0.9
				c0-0.4-0.1-0.6-0.3-0.9c-0.2-0.2-0.4-0.4-0.6-0.5s-0.5-0.2-0.8-0.2c-0.3,0-0.6-0.1-0.9-0.1c-0.8,0-1.4,0.2-1.9,0.5
				c-0.5,0.3-0.8,0.8-0.8,1.5h-2.7c0-0.8,0.2-1.5,0.6-2c0.3-0.5,0.8-1,1.3-1.3c0.5-0.3,1.1-0.5,1.8-0.7s1.3-0.2,2-0.2
				c0.6,0,1.2,0.1,1.8,0.2c0.6,0.1,1.1,0.3,1.6,0.6s0.9,0.7,1.1,1.1c0.3,0.5,0.4,1,0.4,1.7V117.6z M300.3,114.1
				c-0.4,0.3-0.9,0.4-1.5,0.5c-0.6,0.1-1.2,0.1-1.8,0.3c-0.3,0-0.6,0.1-0.8,0.2s-0.5,0.2-0.7,0.4c-0.2,0.2-0.4,0.4-0.5,0.6
				s-0.2,0.5-0.2,0.9c0,0.3,0.1,0.6,0.3,0.8s0.4,0.4,0.6,0.5c0.2,0.1,0.5,0.2,0.8,0.3c0.3,0,0.6,0.1,0.8,0.1c0.3,0,0.6,0,1-0.1
				c0.4-0.1,0.7-0.2,1-0.4c0.3-0.2,0.6-0.4,0.8-0.7c0.2-0.3,0.3-0.7,0.3-1.1V114.1z"/>
			<path fill="#9C9C9C" d="M304.7,107.9h2.1v-3.7h2.7v3.7h2.5v2h-2.5v6.6c0,0.3,0,0.5,0,0.7c0,0.2,0.1,0.4,0.2,0.5
				c0.1,0.1,0.2,0.3,0.4,0.3c0.2,0.1,0.4,0.1,0.7,0.1c0.2,0,0.4,0,0.6,0s0.4,0,0.6-0.1v2.1c-0.3,0-0.6,0.1-0.9,0.1
				c-0.3,0-0.6,0-0.9,0c-0.7,0-1.3-0.1-1.7-0.2c-0.4-0.1-0.8-0.3-1-0.6c-0.2-0.3-0.4-0.6-0.5-1c-0.1-0.4-0.1-0.9-0.2-1.4V110h-2.1
				V107.9z"/>
			<path fill="#9C9C9C" d="M314,103.2h2.7v2.6H314V103.2z M314,107.9h2.7v12.4H314V107.9z"/>
			<path fill="#9C9C9C" d="M325.4,120.7c-1,0-1.9-0.2-2.7-0.5c-0.8-0.3-1.4-0.8-2-1.4s-0.9-1.3-1.2-2.1c-0.3-0.8-0.4-1.7-0.4-2.6
				c0-0.9,0.1-1.8,0.4-2.6s0.7-1.5,1.2-2.1c0.5-0.6,1.2-1,2-1.4c0.8-0.3,1.7-0.5,2.7-0.5s1.9,0.2,2.7,0.5c0.8,0.3,1.4,0.8,2,1.4
				c0.5,0.6,0.9,1.3,1.2,2.1c0.3,0.8,0.4,1.7,0.4,2.6c0,1-0.1,1.8-0.4,2.6c-0.3,0.8-0.7,1.5-1.2,2.1s-1.2,1-2,1.4
				C327.3,120.5,326.4,120.7,325.4,120.7z M325.4,118.5c0.6,0,1.1-0.1,1.6-0.4s0.8-0.6,1.1-1s0.5-0.9,0.6-1.4
				c0.1-0.5,0.2-1.1,0.2-1.6c0-0.5-0.1-1.1-0.2-1.6c-0.1-0.5-0.3-1-0.6-1.4s-0.7-0.7-1.1-1s-1-0.4-1.6-0.4s-1.1,0.1-1.6,0.4
				s-0.8,0.6-1.1,1s-0.5,0.9-0.6,1.4c-0.1,0.5-0.2,1.1-0.2,1.6c0,0.5,0.1,1.1,0.2,1.6c0.1,0.5,0.3,1,0.6,1.4s0.7,0.8,1.1,1
				S324.8,118.5,325.4,118.5z"/>
			<path fill="#9C9C9C" d="M334,107.9h2.6v1.8l0,0c0.4-0.7,1-1.2,1.6-1.6c0.7-0.4,1.4-0.6,2.2-0.6c1.4,0,2.4,0.4,3.2,1.1
				c0.8,0.7,1.2,1.8,1.2,3.2v8.5h-2.7v-7.8c0-1-0.2-1.7-0.6-2.1s-1-0.7-1.8-0.7c-0.5,0-0.9,0.1-1.2,0.3s-0.7,0.4-0.9,0.7
				c-0.3,0.3-0.5,0.6-0.6,1c-0.1,0.4-0.2,0.8-0.2,1.3v7.3H334V107.9z"/>
		</g>
		<g>
			<path fill="#9C9C9C" d="M47.4,122.3c0,0,3.1-3.3,7.6-5.2c4.5-2,19.2-1.4,30.5-11.6c11.4-10.1,11.6-33.1,4.7-45.2
				S84.6,28.1,93.8,20L80.1,4.8c0,0-8.9,6.5-16.1,6.5c-7.2,0-10.8-3.8-16.6-3.8c-5.8,0-9.4,3.8-16.6,3.8c-7.2,0-16.1-6.5-16.1-6.5
				L1,20c9.2,8.1,10.5,28.2,3.6,40.3s-6.7,35.1,4.7,45.2c11.4,10.1,26,9.6,30.5,11.6C44.4,119,47.4,122.3,47.4,122.3z"/>
			<g>
				<g>
					<radialGradient id="SVGID_1_" cx="47.4753" cy="85.4522" r="15.0506" gradientUnits="userSpaceOnUse">
						<stop  offset="0" style="stop-color:#454545"/>
						<stop  offset="0.5586" style="stop-color:#414141"/>
						<stop  offset="1" style="stop-color:#383838"/>
					</radialGradient>
					<path fill-rule="evenodd" clip-rule="evenodd" fill="url(#SVGID_1_)" d="M48.7,72.6c-0.9,0-1.7,0-2.5,0c0,0.4,0,0.8,0,1.1
						c0,9.2,0,18.4,0,27.7c0,1.5-0.7,2.6-2,3.3c-1.2,0.6-2.5,0.5-3.7-0.3c-0.9-0.7-1.5-1.6-1.5-2.8c0-11.7,0-23.4,0-35.1
						c0-0.1,0-0.2,0.1-0.4c5.6,0,11.1,0,16.7,0c0,0.2,0.1,0.5,0.1,0.8c0,11.5,0,23,0,34.6c0,1.8-1.1,3.3-2.7,3.6
						c-1.9,0.4-3.4-0.4-4.2-2c-0.2-0.5-0.3-1.1-0.3-1.7c0-9.2,0-18.3,0-27.5C48.7,73.3,48.7,73,48.7,72.6z"/>
					<radialGradient id="SVGID_2_" cx="41.7789" cy="57.2851" r="13.0653" gradientUnits="userSpaceOnUse">
						<stop  offset="0" style="stop-color:#454545"/>
						<stop  offset="0.5586" style="stop-color:#414141"/>
						<stop  offset="1" style="stop-color:#383838"/>
					</radialGradient>
					<path fill-rule="evenodd" clip-rule="evenodd" fill="url(#SVGID_2_)" d="M52,41.9c-4.3,7-8.5,13.8-12.7,20.6
						c-0.1,0-0.1,0-0.2,0c0-3.9,0-7.7,0-11.6c-0.9,0-1.6,0-2.5,0c0,0.3,0,0.6,0,1c0,6,0,12,0,18.1c0,2-1.5,3.2-3.3,2.7
						c-1-0.3-1.7-1.3-1.7-2.6c0-2.5,0-5,0-7.6c0-3.9,0-7.9,0-11.8c0-4.9,3.2-8.4,8.1-8.6c3.7-0.1,7.5,0,11.2,0
						C51.2,41.9,51.5,41.9,52,41.9z"/>
					<radialGradient id="SVGID_3_" cx="53.569" cy="57.4392" r="12.7989" gradientUnits="userSpaceOnUse">
						<stop  offset="0" style="stop-color:#454545"/>
						<stop  offset="0.5586" style="stop-color:#414141"/>
						<stop  offset="1" style="stop-color:#383838"/>
					</radialGradient>
					<path fill-rule="evenodd" clip-rule="evenodd" fill="url(#SVGID_3_)" d="M43.8,62.1c0.2-0.4,0.4-0.7,0.6-1
						C48.2,55,52,48.9,55.8,42.8c0.4-0.6,0.7-0.8,1.4-0.6c3.4,0.9,6.1,4.1,6.1,7.8c0.1,6.6,0,13.3,0,19.9c0,1.6-1.1,2.8-2.5,2.8
						c-1.4,0-2.5-1.2-2.5-2.8c0-6,0-11.9,0-17.9c0-0.4,0-0.7,0-1.2c-0.8,0-1.5,0-2.3,0c0,3.7,0,7.5,0,11.3
						C51.9,62.1,48,62.1,43.8,62.1z"/>
					<radialGradient id="SVGID_4_" cx="47.473" cy="26.3178" r="7.1633" gradientUnits="userSpaceOnUse">
						<stop  offset="0" style="stop-color:#454545"/>
						<stop  offset="0.5586" style="stop-color:#414141"/>
						<stop  offset="1" style="stop-color:#383838"/>
					</radialGradient>
					<path fill-rule="evenodd" clip-rule="evenodd" fill="url(#SVGID_4_)" d="M48.6,29c1-1.4,1.1-2.7,0.5-4
						c-0.3-0.7-0.9-1.2-1.6-1.2c-0.8,0-1.4,0.5-1.7,1.2c-0.6,1.3-0.5,2.6,0.5,3.9c-1.1,0-2.1,0-3.1,0c0,0.5-0.1,1-0.1,1.5
						c-1.2,0-2.4,0-3.7,0c-0.2,0-0.5-0.3-0.6-0.5c-0.8-1.5-0.7-3,0.4-4.4c1.6-2,3.8-3,6.3-3.3c2.5-0.3,4.9-0.2,7.2,0.9
						c1.4,0.6,2.5,1.5,3.3,2.7c1,1.3,0.9,2.7,0.2,4.2c-0.1,0.2-0.4,0.5-0.6,0.5c-1.2,0-2.5,0-3.8,0c0-0.5-0.1-0.9-0.1-1.5
						C50.8,29,49.8,29,48.6,29z"/>
					<radialGradient id="SVGID_5_" cx="47.2917" cy="36.545" r="6.6506" gradientUnits="userSpaceOnUse">
						<stop  offset="0" style="stop-color:#454545"/>
						<stop  offset="0.5586" style="stop-color:#414141"/>
						<stop  offset="1" style="stop-color:#383838"/>
					</radialGradient>
					<path fill-rule="evenodd" clip-rule="evenodd" fill="url(#SVGID_5_)" d="M41,34.3c-0.7,0-1.4,0-2.2,0c0-0.7,0-1.2,0-1.9
						c5.6,0,11.3,0,17,0c0,0.6,0,1.2,0,1.8c-0.6,0-1.2,0-1.9,0c-0.2,2.2-1.1,3.9-2.8,5.1c-1.2,0.9-2.5,1.2-4,1.1
						C43.7,40.4,41.6,38.2,41,34.3z"/>
				</g>
			</g>
		</g>
	</g>
</g>
</svg>
